<?xml version="1.0" encoding="UTF-8" standalone="no"?>
<!DOCTYPE svg PUBLIC "-//W3C//DTD SVG 1.1//EN"
 "http://www.w3.org/Graphics/SVG/1.1/DTD/svg11.dtd">
<!-- Generated by graphviz version 2.46.0 (20210118.1747)
 -->
<!-- Title: G Pages: 1 -->
<svg width="857pt" height="118pt"
 viewBox="0.00 0.00 857.00 118.00" xmlns="http://www.w3.org/2000/svg" xmlns:xlink="http://www.w3.org/1999/xlink">
<g id="graph0" class="graph" transform="scale(1 1) rotate(0) translate(4 114)">
<title>G</title>
<polygon fill="white" stroke="transparent" points="-4,4 -4,-114 853,-114 853,4 -4,4"/>
<!-- VectorNode -->
<g id="node1" class="node">
<title>VectorNode</title>
<polygon fill="#8df7ef" stroke="black" points="0,-73.5 0,-109.5 830,-109.5 830,-73.5 0,-73.5"/>
<text text-anchor="middle" x="11.5" y="-87.8" font-family="Times New Roman,serif" font-size="14.00">0</text>
<polyline fill="none" stroke="black" points="23,-73.5 23,-109.5 "/>
<text text-anchor="middle" x="34.5" y="-87.8" font-family="Times New Roman,serif" font-size="14.00">1</text>
<polyline fill="none" stroke="black" points="46,-73.5 46,-109.5 "/>
<text text-anchor="middle" x="57.5" y="-87.8" font-family="Times New Roman,serif" font-size="14.00">2</text>
<polyline fill="none" stroke="black" points="69,-73.5 69,-109.5 "/>
<text text-anchor="middle" x="80.5" y="-87.8" font-family="Times New Roman,serif" font-size="14.00">3</text>
<polyline fill="none" stroke="black" points="92,-73.5 92,-109.5 "/>
<text text-anchor="middle" x="103.5" y="-87.8" font-family="Times New Roman,serif" font-size="14.00">4</text>
<polyline fill="none" stroke="black" points="115,-73.5 115,-109.5 "/>
<text text-anchor="middle" x="126.5" y="-87.8" font-family="Times New Roman,serif" font-size="14.00">5</text>
<polyline fill="none" stroke="black" points="138,-73.5 138,-109.5 "/>
<text text-anchor="middle" x="149.5" y="-87.8" font-family="Times New Roman,serif" font-size="14.00">6</text>
<polyline fill="none" stroke="black" points="161,-73.5 161,-109.5 "/>
<text text-anchor="middle" x="172.5" y="-87.8" font-family="Times New Roman,serif" font-size="14.00">7</text>
<polyline fill="none" stroke="black" points="184,-73.5 184,-109.5 "/>
<text text-anchor="middle" x="195.5" y="-87.8" font-family="Times New Roman,serif" font-size="14.00">8</text>
<polyline fill="none" stroke="black" points="207,-73.5 207,-109.5 "/>
<text text-anchor="middle" x="218.5" y="-87.8" font-family="Times New Roman,serif" font-size="14.00">9</text>
<polyline fill="none" stroke="black" points="230,-73.5 230,-109.5 "/>
<text text-anchor="middle" x="245" y="-87.8" font-family="Times New Roman,serif" font-size="14.00">10</text>
<polyline fill="none" stroke="black" points="260,-73.5 260,-109.5 "/>
<text text-anchor="middle" x="275" y="-87.8" font-family="Times New Roman,serif" font-size="14.00">11</text>
<polyline fill="none" stroke="black" points="290,-73.5 290,-109.5 "/>
<text text-anchor="middle" x="305" y="-87.8" font-family="Times New Roman,serif" font-size="14.00">12</text>
<polyline fill="none" stroke="black" points="320,-73.5 320,-109.5 "/>
<text text-anchor="middle" x="335" y="-87.8" font-family="Times New Roman,serif" font-size="14.00">13</text>
<polyline fill="none" stroke="black" points="350,-73.5 350,-109.5 "/>
<text text-anchor="middle" x="365" y="-87.8" font-family="Times New Roman,serif" font-size="14.00">14</text>
<polyline fill="none" stroke="black" points="380,-73.5 380,-109.5 "/>
<text text-anchor="middle" x="395" y="-87.8" font-family="Times New Roman,serif" font-size="14.00">15</text>
<polyline fill="none" stroke="black" points="410,-73.5 410,-109.5 "/>
<text text-anchor="middle" x="425" y="-87.8" font-family="Times New Roman,serif" font-size="14.00">16</text>
<polyline fill="none" stroke="black" points="440,-73.5 440,-109.5 "/>
<text text-anchor="middle" x="455" y="-87.8" font-family="Times New Roman,serif" font-size="14.00">17</text>
<polyline fill="none" stroke="black" points="470,-73.5 470,-109.5 "/>
<text text-anchor="middle" x="485" y="-87.8" font-family="Times New Roman,serif" font-size="14.00">18</text>
<polyline fill="none" stroke="black" points="500,-73.5 500,-109.5 "/>
<text text-anchor="middle" x="515" y="-87.8" font-family="Times New Roman,serif" font-size="14.00">19</text>
<polyline fill="none" stroke="black" points="530,-73.5 530,-109.5 "/>
<text text-anchor="middle" x="545" y="-87.8" font-family="Times New Roman,serif" font-size="14.00">20</text>
<polyline fill="none" stroke="black" points="560,-73.5 560,-109.5 "/>
<text text-anchor="middle" x="575" y="-87.8" font-family="Times New Roman,serif" font-size="14.00">21</text>
<polyline fill="none" stroke="black" points="590,-73.5 590,-109.5 "/>
<text text-anchor="middle" x="605" y="-87.8" font-family="Times New Roman,serif" font-size="14.00">22</text>
<polyline fill="none" stroke="black" points="620,-73.5 620,-109.5 "/>
<text text-anchor="middle" x="635" y="-87.8" font-family="Times New Roman,serif" font-size="14.00">23</text>
<polyline fill="none" stroke="black" points="650,-73.5 650,-109.5 "/>
<text text-anchor="middle" x="665" y="-87.8" font-family="Times New Roman,serif" font-size="14.00">24</text>
<polyline fill="none" stroke="black" points="680,-73.5 680,-109.5 "/>
<text text-anchor="middle" x="695" y="-87.8" font-family="Times New Roman,serif" font-size="14.00">25</text>
<polyline fill="none" stroke="black" points="710,-73.5 710,-109.5 "/>
<text text-anchor="middle" x="725" y="-87.8" font-family="Times New Roman,serif" font-size="14.00">26</text>
<polyline fill="none" stroke="black" points="740,-73.5 740,-109.5 "/>
<text text-anchor="middle" x="755" y="-87.8" font-family="Times New Roman,serif" font-size="14.00">27</text>
<polyline fill="none" stroke="black" points="770,-73.5 770,-109.5 "/>
<text text-anchor="middle" x="785" y="-87.8" font-family="Times New Roman,serif" font-size="14.00">28</text>
<polyline fill="none" stroke="black" points="800,-73.5 800,-109.5 "/>
<text text-anchor="middle" x="815" y="-87.8" font-family="Times New Roman,serif" font-size="14.00">29</text>
</g>
<!-- node1 -->
<g id="node2" class="node">
<title>node1</title>
<polygon fill="white" stroke="pink" points="6,-0.5 6,-36.5 68,-36.5 68,-0.5 6,-0.5"/>
<text text-anchor="middle" x="37" y="-14.8" font-family="Times New Roman,serif" font-size="14.00">Amador</text>
</g>
<!-- VectorNode&#45;&gt;node1 -->
<g id="edge1" class="edge">
<title>VectorNode:3&#45;&gt;node1</title>
<path fill="none" stroke="black" d="M80,-73C80,-62.16 74.57,-52.27 67.58,-44.03"/>
<polygon fill="black" stroke="black" points="69.96,-41.45 60.51,-36.65 64.9,-46.29 69.96,-41.45"/>
</g>
<!-- node2 -->
<g id="node3" class="node">
<title>node2</title>
<polygon fill="white" stroke="pink" points="86,-0.5 86,-36.5 142,-36.5 142,-0.5 86,-0.5"/>
<text text-anchor="middle" x="114" y="-14.8" font-family="Times New Roman,serif" font-size="14.00">Aurora</text>
</g>
<!-- VectorNode&#45;&gt;node2 -->
<g id="edge2" class="edge">
<title>VectorNode:4&#45;&gt;node2</title>
<path fill="none" stroke="black" d="M103,-73C103,-64.33 104.4,-55.03 106.21,-46.66"/>
<polygon fill="black" stroke="black" points="109.67,-47.21 108.63,-36.66 102.87,-45.56 109.67,-47.21"/>
</g>
<!-- node3 -->
<g id="node4" class="node">
<title>node3</title>
<polygon fill="white" stroke="pink" points="170.5,-0.5 170.5,-36.5 265.5,-36.5 265.5,-0.5 170.5,-0.5"/>
<text text-anchor="middle" x="218" y="-14.8" font-family="Times New Roman,serif" font-size="14.00">A comer todo</text>
</g>
<!-- VectorNode&#45;&gt;node3 -->
<g id="edge3" class="edge">
<title>VectorNode:9&#45;&gt;node3</title>
<path fill="none" stroke="black" d="M218,-73C218,-64.51 218,-55.26 218,-46.88"/>
<polygon fill="black" stroke="black" points="221.5,-46.85 218,-36.85 214.5,-46.85 221.5,-46.85"/>
</g>
<!-- node4 -->
<g id="node5" class="node">
<title>node4</title>
<polygon fill="white" stroke="pink" points="781,-0.5 781,-36.5 849,-36.5 849,-0.5 781,-0.5"/>
<text text-anchor="middle" x="815" y="-14.8" font-family="Times New Roman,serif" font-size="14.00">Bayoneta</text>
</g>
<!-- VectorNode&#45;&gt;node4 -->
<g id="edge4" class="edge">
<title>VectorNode:29&#45;&gt;node4</title>
<path fill="none" stroke="black" d="M815,-73C815,-64.51 815,-55.26 815,-46.88"/>
<polygon fill="black" stroke="black" points="818.5,-46.85 815,-36.85 811.5,-46.85 818.5,-46.85"/>
</g>
</g>
</svg>
