<?xml version="1.0" encoding="UTF-8" standalone="no"?>
<!DOCTYPE svg PUBLIC "-//W3C//DTD SVG 1.1//EN"
 "http://www.w3.org/Graphics/SVG/1.1/DTD/svg11.dtd">
<!-- Generated by graphviz version 2.46.0 (20210118.1747)
 -->
<!-- Title: G Pages: 1 -->
<svg width="942pt" height="118pt"
 viewBox="0.00 0.00 942.00 118.00" xmlns="http://www.w3.org/2000/svg" xmlns:xlink="http://www.w3.org/1999/xlink">
<g id="graph0" class="graph" transform="scale(1 1) rotate(0) translate(4 114)">
<title>G</title>
<polygon fill="white" stroke="transparent" points="-4,4 -4,-114 938,-114 938,4 -4,4"/>
<!-- VectorNode -->
<g id="node1" class="node">
<title>VectorNode</title>
<polygon fill="#8df7ef" stroke="black" points="345,-73.5 345,-109.5 875,-109.5 875,-73.5 345,-73.5"/>
<text text-anchor="middle" x="356.5" y="-87.8" font-family="Times New Roman,serif" font-size="14.00">0</text>
<polyline fill="none" stroke="black" points="368,-73.5 368,-109.5 "/>
<text text-anchor="middle" x="379.5" y="-87.8" font-family="Times New Roman,serif" font-size="14.00">1</text>
<polyline fill="none" stroke="black" points="391,-73.5 391,-109.5 "/>
<text text-anchor="middle" x="402.5" y="-87.8" font-family="Times New Roman,serif" font-size="14.00">2</text>
<polyline fill="none" stroke="black" points="414,-73.5 414,-109.5 "/>
<text text-anchor="middle" x="425.5" y="-87.8" font-family="Times New Roman,serif" font-size="14.00">3</text>
<polyline fill="none" stroke="black" points="437,-73.5 437,-109.5 "/>
<text text-anchor="middle" x="448.5" y="-87.8" font-family="Times New Roman,serif" font-size="14.00">4</text>
<polyline fill="none" stroke="black" points="460,-73.5 460,-109.5 "/>
<text text-anchor="middle" x="471.5" y="-87.8" font-family="Times New Roman,serif" font-size="14.00">5</text>
<polyline fill="none" stroke="black" points="483,-73.5 483,-109.5 "/>
<text text-anchor="middle" x="494.5" y="-87.8" font-family="Times New Roman,serif" font-size="14.00">6</text>
<polyline fill="none" stroke="black" points="506,-73.5 506,-109.5 "/>
<text text-anchor="middle" x="517.5" y="-87.8" font-family="Times New Roman,serif" font-size="14.00">7</text>
<polyline fill="none" stroke="black" points="529,-73.5 529,-109.5 "/>
<text text-anchor="middle" x="540.5" y="-87.8" font-family="Times New Roman,serif" font-size="14.00">8</text>
<polyline fill="none" stroke="black" points="552,-73.5 552,-109.5 "/>
<text text-anchor="middle" x="563.5" y="-87.8" font-family="Times New Roman,serif" font-size="14.00">9</text>
<polyline fill="none" stroke="black" points="575,-73.5 575,-109.5 "/>
<text text-anchor="middle" x="590" y="-87.8" font-family="Times New Roman,serif" font-size="14.00">10</text>
<polyline fill="none" stroke="black" points="605,-73.5 605,-109.5 "/>
<text text-anchor="middle" x="620" y="-87.8" font-family="Times New Roman,serif" font-size="14.00">11</text>
<polyline fill="none" stroke="black" points="635,-73.5 635,-109.5 "/>
<text text-anchor="middle" x="650" y="-87.8" font-family="Times New Roman,serif" font-size="14.00">12</text>
<polyline fill="none" stroke="black" points="665,-73.5 665,-109.5 "/>
<text text-anchor="middle" x="680" y="-87.8" font-family="Times New Roman,serif" font-size="14.00">13</text>
<polyline fill="none" stroke="black" points="695,-73.5 695,-109.5 "/>
<text text-anchor="middle" x="710" y="-87.8" font-family="Times New Roman,serif" font-size="14.00">14</text>
<polyline fill="none" stroke="black" points="725,-73.5 725,-109.5 "/>
<text text-anchor="middle" x="740" y="-87.8" font-family="Times New Roman,serif" font-size="14.00">15</text>
<polyline fill="none" stroke="black" points="755,-73.5 755,-109.5 "/>
<text text-anchor="middle" x="770" y="-87.8" font-family="Times New Roman,serif" font-size="14.00">16</text>
<polyline fill="none" stroke="black" points="785,-73.5 785,-109.5 "/>
<text text-anchor="middle" x="800" y="-87.8" font-family="Times New Roman,serif" font-size="14.00">17</text>
<polyline fill="none" stroke="black" points="815,-73.5 815,-109.5 "/>
<text text-anchor="middle" x="830" y="-87.8" font-family="Times New Roman,serif" font-size="14.00">18</text>
<polyline fill="none" stroke="black" points="845,-73.5 845,-109.5 "/>
<text text-anchor="middle" x="860" y="-87.8" font-family="Times New Roman,serif" font-size="14.00">19</text>
</g>
<!-- node31 -->
<g id="node2" class="node">
<title>node31</title>
<polygon fill="white" stroke="pink" points="0,-0.5 0,-36.5 136,-36.5 136,-0.5 0,-0.5"/>
<text text-anchor="middle" x="68" y="-14.8" font-family="Times New Roman,serif" font-size="14.00">Aguayo Cepeda S.A.</text>
</g>
<!-- VectorNode&#45;&gt;node31 -->
<g id="edge1" class="edge">
<title>VectorNode:3&#45;&gt;node31</title>
<path fill="none" stroke="black" d="M425,-73C425,-43.65 206.96,-42.51 146.5,-36.68"/>
<polygon fill="black" stroke="black" points="146.73,-33.18 136.36,-35.39 145.85,-40.12 146.73,-33.18"/>
</g>
<!-- node32 -->
<g id="node3" class="node">
<title>node32</title>
<polygon fill="white" stroke="pink" points="154,-0.5 154,-36.5 384,-36.5 384,-0.5 154,-0.5"/>
<text text-anchor="middle" x="269" y="-14.8" font-family="Times New Roman,serif" font-size="14.00">Amaya, Rolón y Chavarría Asociados</text>
</g>
<!-- VectorNode&#45;&gt;node32 -->
<g id="edge2" class="edge">
<title>VectorNode:4&#45;&gt;node32</title>
<path fill="none" stroke="black" d="M448,-73C448,-57.89 424.29,-46.69 394.13,-38.56"/>
<polygon fill="black" stroke="black" points="394.69,-35.09 384.13,-36.03 392.97,-41.88 394.69,-35.09"/>
</g>
<!-- node33 -->
<g id="node4" class="node">
<title>node33</title>
<polygon fill="white" stroke="pink" points="402,-0.5 402,-36.5 632,-36.5 632,-0.5 402,-0.5"/>
<text text-anchor="middle" x="517" y="-14.8" font-family="Times New Roman,serif" font-size="14.00">Amaya, Rolón y Chavarría Asociados</text>
</g>
<!-- VectorNode&#45;&gt;node33 -->
<g id="edge3" class="edge">
<title>VectorNode:7&#45;&gt;node33</title>
<path fill="none" stroke="black" d="M517,-73C517,-64.51 517,-55.26 517,-46.88"/>
<polygon fill="black" stroke="black" points="520.5,-46.85 517,-36.85 513.5,-46.85 520.5,-46.85"/>
</g>
<!-- node34 -->
<g id="node5" class="node">
<title>node34</title>
<polygon fill="white" stroke="pink" points="650,-0.5 650,-36.5 786,-36.5 786,-0.5 650,-0.5"/>
<text text-anchor="middle" x="718" y="-14.8" font-family="Times New Roman,serif" font-size="14.00">Aguayo Cepeda S.A.</text>
</g>
<!-- VectorNode&#45;&gt;node34 -->
<g id="edge4" class="edge">
<title>VectorNode:8&#45;&gt;node34</title>
<path fill="none" stroke="black" d="M540,-73C540,-67.37 592.95,-51.96 641.1,-39.12"/>
<polygon fill="black" stroke="black" points="642.19,-42.45 650.96,-36.51 640.4,-35.69 642.19,-42.45"/>
</g>
<!-- node35 -->
<g id="node6" class="node">
<title>node35</title>
<polygon fill="white" stroke="pink" points="804,-0.5 804,-36.5 934,-36.5 934,-0.5 804,-0.5"/>
<text text-anchor="middle" x="869" y="-14.8" font-family="Times New Roman,serif" font-size="14.00">Briones Pineda S.A.</text>
</g>
<!-- VectorNode&#45;&gt;node35 -->
<g id="edge5" class="edge">
<title>VectorNode:15&#45;&gt;node35</title>
<path fill="none" stroke="black" d="M740,-73C740,-59.17 765.63,-47.04 794.04,-37.84"/>
<polygon fill="black" stroke="black" points="795.23,-41.14 803.74,-34.84 793.16,-34.45 795.23,-41.14"/>
</g>
</g>
</svg>
