<?xml version="1.0" encoding="UTF-8" standalone="no"?>
<!DOCTYPE svg PUBLIC "-//W3C//DTD SVG 1.1//EN"
 "http://www.w3.org/Graphics/SVG/1.1/DTD/svg11.dtd">
<!-- Generated by graphviz version 2.46.0 (20210118.1747)
 -->
<!-- Title: G Pages: 1 -->
<svg width="857pt" height="191pt"
 viewBox="0.00 0.00 857.00 191.00" xmlns="http://www.w3.org/2000/svg" xmlns:xlink="http://www.w3.org/1999/xlink">
<g id="graph0" class="graph" transform="scale(1 1) rotate(0) translate(4 187)">
<title>G</title>
<polygon fill="white" stroke="transparent" points="-4,4 -4,-187 853,-187 853,4 -4,4"/>
<!-- VectorNode -->
<g id="node1" class="node">
<title>VectorNode</title>
<polygon fill="#8df7ef" stroke="black" points="0,-146.5 0,-182.5 830,-182.5 830,-146.5 0,-146.5"/>
<text text-anchor="middle" x="11.5" y="-160.8" font-family="Times New Roman,serif" font-size="14.00">0</text>
<polyline fill="none" stroke="black" points="23,-146.5 23,-182.5 "/>
<text text-anchor="middle" x="34.5" y="-160.8" font-family="Times New Roman,serif" font-size="14.00">1</text>
<polyline fill="none" stroke="black" points="46,-146.5 46,-182.5 "/>
<text text-anchor="middle" x="57.5" y="-160.8" font-family="Times New Roman,serif" font-size="14.00">2</text>
<polyline fill="none" stroke="black" points="69,-146.5 69,-182.5 "/>
<text text-anchor="middle" x="80.5" y="-160.8" font-family="Times New Roman,serif" font-size="14.00">3</text>
<polyline fill="none" stroke="black" points="92,-146.5 92,-182.5 "/>
<text text-anchor="middle" x="103.5" y="-160.8" font-family="Times New Roman,serif" font-size="14.00">4</text>
<polyline fill="none" stroke="black" points="115,-146.5 115,-182.5 "/>
<text text-anchor="middle" x="126.5" y="-160.8" font-family="Times New Roman,serif" font-size="14.00">5</text>
<polyline fill="none" stroke="black" points="138,-146.5 138,-182.5 "/>
<text text-anchor="middle" x="149.5" y="-160.8" font-family="Times New Roman,serif" font-size="14.00">6</text>
<polyline fill="none" stroke="black" points="161,-146.5 161,-182.5 "/>
<text text-anchor="middle" x="172.5" y="-160.8" font-family="Times New Roman,serif" font-size="14.00">7</text>
<polyline fill="none" stroke="black" points="184,-146.5 184,-182.5 "/>
<text text-anchor="middle" x="195.5" y="-160.8" font-family="Times New Roman,serif" font-size="14.00">8</text>
<polyline fill="none" stroke="black" points="207,-146.5 207,-182.5 "/>
<text text-anchor="middle" x="218.5" y="-160.8" font-family="Times New Roman,serif" font-size="14.00">9</text>
<polyline fill="none" stroke="black" points="230,-146.5 230,-182.5 "/>
<text text-anchor="middle" x="245" y="-160.8" font-family="Times New Roman,serif" font-size="14.00">10</text>
<polyline fill="none" stroke="black" points="260,-146.5 260,-182.5 "/>
<text text-anchor="middle" x="275" y="-160.8" font-family="Times New Roman,serif" font-size="14.00">11</text>
<polyline fill="none" stroke="black" points="290,-146.5 290,-182.5 "/>
<text text-anchor="middle" x="305" y="-160.8" font-family="Times New Roman,serif" font-size="14.00">12</text>
<polyline fill="none" stroke="black" points="320,-146.5 320,-182.5 "/>
<text text-anchor="middle" x="335" y="-160.8" font-family="Times New Roman,serif" font-size="14.00">13</text>
<polyline fill="none" stroke="black" points="350,-146.5 350,-182.5 "/>
<text text-anchor="middle" x="365" y="-160.8" font-family="Times New Roman,serif" font-size="14.00">14</text>
<polyline fill="none" stroke="black" points="380,-146.5 380,-182.5 "/>
<text text-anchor="middle" x="395" y="-160.8" font-family="Times New Roman,serif" font-size="14.00">15</text>
<polyline fill="none" stroke="black" points="410,-146.5 410,-182.5 "/>
<text text-anchor="middle" x="425" y="-160.8" font-family="Times New Roman,serif" font-size="14.00">16</text>
<polyline fill="none" stroke="black" points="440,-146.5 440,-182.5 "/>
<text text-anchor="middle" x="455" y="-160.8" font-family="Times New Roman,serif" font-size="14.00">17</text>
<polyline fill="none" stroke="black" points="470,-146.5 470,-182.5 "/>
<text text-anchor="middle" x="485" y="-160.8" font-family="Times New Roman,serif" font-size="14.00">18</text>
<polyline fill="none" stroke="black" points="500,-146.5 500,-182.5 "/>
<text text-anchor="middle" x="515" y="-160.8" font-family="Times New Roman,serif" font-size="14.00">19</text>
<polyline fill="none" stroke="black" points="530,-146.5 530,-182.5 "/>
<text text-anchor="middle" x="545" y="-160.8" font-family="Times New Roman,serif" font-size="14.00">20</text>
<polyline fill="none" stroke="black" points="560,-146.5 560,-182.5 "/>
<text text-anchor="middle" x="575" y="-160.8" font-family="Times New Roman,serif" font-size="14.00">21</text>
<polyline fill="none" stroke="black" points="590,-146.5 590,-182.5 "/>
<text text-anchor="middle" x="605" y="-160.8" font-family="Times New Roman,serif" font-size="14.00">22</text>
<polyline fill="none" stroke="black" points="620,-146.5 620,-182.5 "/>
<text text-anchor="middle" x="635" y="-160.8" font-family="Times New Roman,serif" font-size="14.00">23</text>
<polyline fill="none" stroke="black" points="650,-146.5 650,-182.5 "/>
<text text-anchor="middle" x="665" y="-160.8" font-family="Times New Roman,serif" font-size="14.00">24</text>
<polyline fill="none" stroke="black" points="680,-146.5 680,-182.5 "/>
<text text-anchor="middle" x="695" y="-160.8" font-family="Times New Roman,serif" font-size="14.00">25</text>
<polyline fill="none" stroke="black" points="710,-146.5 710,-182.5 "/>
<text text-anchor="middle" x="725" y="-160.8" font-family="Times New Roman,serif" font-size="14.00">26</text>
<polyline fill="none" stroke="black" points="740,-146.5 740,-182.5 "/>
<text text-anchor="middle" x="755" y="-160.8" font-family="Times New Roman,serif" font-size="14.00">27</text>
<polyline fill="none" stroke="black" points="770,-146.5 770,-182.5 "/>
<text text-anchor="middle" x="785" y="-160.8" font-family="Times New Roman,serif" font-size="14.00">28</text>
<polyline fill="none" stroke="black" points="800,-146.5 800,-182.5 "/>
<text text-anchor="middle" x="815" y="-160.8" font-family="Times New Roman,serif" font-size="14.00">29</text>
</g>
<!-- node171 -->
<g id="node2" class="node">
<title>node171</title>
<polygon fill="white" stroke="pink" points="6,-73.5 6,-109.5 68,-109.5 68,-73.5 6,-73.5"/>
<text text-anchor="middle" x="37" y="-87.8" font-family="Times New Roman,serif" font-size="14.00">Amador</text>
</g>
<!-- VectorNode&#45;&gt;node171 -->
<g id="edge1" class="edge">
<title>VectorNode:3&#45;&gt;node171</title>
<path fill="none" stroke="black" d="M80,-146C80,-135.16 74.57,-125.27 67.58,-117.03"/>
<polygon fill="black" stroke="black" points="69.96,-114.45 60.51,-109.65 64.9,-119.29 69.96,-114.45"/>
</g>
<!-- node172 -->
<g id="node3" class="node">
<title>node172</title>
<polygon fill="white" stroke="pink" points="86,-73.5 86,-109.5 142,-109.5 142,-73.5 86,-73.5"/>
<text text-anchor="middle" x="114" y="-87.8" font-family="Times New Roman,serif" font-size="14.00">Aurora</text>
</g>
<!-- VectorNode&#45;&gt;node172 -->
<g id="edge4" class="edge">
<title>VectorNode:4&#45;&gt;node172</title>
<path fill="none" stroke="black" d="M103,-146C103,-137.33 104.4,-128.03 106.21,-119.66"/>
<polygon fill="black" stroke="black" points="109.67,-120.21 108.63,-109.66 102.87,-118.56 109.67,-120.21"/>
</g>
<!-- node174 -->
<g id="node5" class="node">
<title>node174</title>
<polygon fill="white" stroke="pink" points="170.5,-73.5 170.5,-109.5 265.5,-109.5 265.5,-73.5 170.5,-73.5"/>
<text text-anchor="middle" x="218" y="-87.8" font-family="Times New Roman,serif" font-size="14.00">A comer todo</text>
</g>
<!-- VectorNode&#45;&gt;node174 -->
<g id="edge5" class="edge">
<title>VectorNode:9&#45;&gt;node174</title>
<path fill="none" stroke="black" d="M218,-146C218,-137.51 218,-128.26 218,-119.88"/>
<polygon fill="black" stroke="black" points="221.5,-119.85 218,-109.85 214.5,-119.85 221.5,-119.85"/>
</g>
<!-- node175 -->
<g id="node6" class="node">
<title>node175</title>
<polygon fill="white" stroke="pink" points="781,-73.5 781,-109.5 849,-109.5 849,-73.5 781,-73.5"/>
<text text-anchor="middle" x="815" y="-87.8" font-family="Times New Roman,serif" font-size="14.00">Bayoneta</text>
</g>
<!-- VectorNode&#45;&gt;node175 -->
<g id="edge6" class="edge">
<title>VectorNode:29&#45;&gt;node175</title>
<path fill="none" stroke="black" d="M815,-146C815,-137.51 815,-128.26 815,-119.88"/>
<polygon fill="black" stroke="black" points="818.5,-119.85 815,-109.85 811.5,-119.85 818.5,-119.85"/>
</g>
<!-- node173 -->
<g id="node4" class="node">
<title>node173</title>
<polygon fill="white" stroke="pink" points="80,-0.5 80,-36.5 148,-36.5 148,-0.5 80,-0.5"/>
<text text-anchor="middle" x="114" y="-14.8" font-family="Times New Roman,serif" font-size="14.00">Armados</text>
</g>
<!-- node172&#45;&gt;node173 -->
<g id="edge2" class="edge">
<title>node172&#45;&gt;node173</title>
<path fill="none" stroke="black" d="M108.12,-73.31C107.28,-65.29 107.05,-55.55 107.42,-46.57"/>
<polygon fill="black" stroke="black" points="110.92,-46.75 108.14,-36.53 103.94,-46.25 110.92,-46.75"/>
</g>
<!-- node173&#45;&gt;node172 -->
<g id="edge3" class="edge">
<title>node173&#45;&gt;node172</title>
<path fill="none" stroke="black" d="M119.86,-36.53C120.71,-44.53 120.95,-54.27 120.59,-63.25"/>
<polygon fill="black" stroke="black" points="117.09,-63.09 119.88,-73.31 124.07,-63.58 117.09,-63.09"/>
</g>
</g>
</svg>
